<?xml version="1.0" encoding="UTF-8" standalone="no"?>
<svg
   width="256"
   height="256"
   version="1.1"
   id="svg1"
   sodipodi:docname="icon.svg"
   inkscape:export-filename="icon.svg"
   inkscape:export-xdpi="1755.4286"
   inkscape:export-ydpi="1755.4286"
   xmlns:inkscape="http://www.inkscape.org/namespaces/inkscape"
   xmlns:sodipodi="http://sodipodi.sourceforge.net/DTD/sodipodi-0.dtd"
   xmlns="http://www.w3.org/2000/svg"
   xmlns:svg="http://www.w3.org/2000/svg">
  <sodipodi:namedview
     id="namedview1"
     pagecolor="#ffffff"
     bordercolor="#999999"
     borderopacity="1"
     inkscape:showpageshadow="0"
     inkscape:pageopacity="0"
     inkscape:pagecheckerboard="0"
     inkscape:deskcolor="#d1d1d1">
    <inkscape:page
       x="0"
       y="0"
       width="256"
       height="256"
       id="page2"
       margin="0"
       bleed="0" />
  </sodipodi:namedview>
  <defs
     id="defs1" />
  <path
     id="path1"
     style="fill:#8eef97;fill-opacity:1;stroke-width:1"
     d="M 36.571428,0 C 16.373586,0 0,16.373586 0,36.571428 V 219.42857 C 0,239.6264 16.373586,256 36.571428,256 H 219.42857 C 239.6264,256 256,239.6264 256,219.42857 V 36.571428 C 256,16.373586 239.6264,0 219.42857,0 Z m -9.357144,109.9467 h 51.773619 v 42.07778 H 27.214284 Z m 74.937636,0 h 48.47765 v 42.07778 h -48.47765 z m 71.74306,0 h 55.12913 v 42.07778 H 173.89498 Z M 27.214284,176.76887 h 51.773619 v 42.39212 H 27.214284 Z m 74.937636,0 h 48.47765 v 42.39212 h -48.47765 z m 71.74306,0 h 55.12913 v 42.39212 H 173.89498 Z M 26.533599,21.797798 H 231.14134 V 69.47637 H 26.533599 Z" />
</svg>
